<svg width="120" height="24" viewBox="0 0 120 24" fill="none" xmlns="http://www.w3.org/2000/svg">
<path d="M18.2578 14.0625C18.6677 14.0625 19 13.7302 19 13.3203V5.45312C19 3.81616 17.6682 2.48438 16.0312 2.48438H15.0664V1.74219C15.0664 1.33228 14.7341 1 14.3242 1C13.9143 1 13.582 1.33228 13.582 1.74219V2.48438H10.2051V1.74219C10.2051 1.33228 9.8728 1 9.46289 1C9.05298 1 8.7207 1.33228 8.7207 1.74219V2.48438H5.38086V1.74219C5.38086 1.33228 5.04858 1 4.63867 1C4.22876 1 3.89648 1.33228 3.89648 1.74219V2.48438H2.96875C1.33178 2.48438 0 3.81616 0 5.45312V17.0312C0 18.6682 1.33178 20 2.96875 20H16.0312C17.6682 20 19 18.6682 19 17.0312C19 16.6213 18.6677 16.2891 18.2578 16.2891C17.8479 16.2891 17.5156 16.6213 17.5156 17.0312C17.5156 17.8497 16.8497 18.5156 16.0312 18.5156H2.96875C2.15027 18.5156 1.48438 17.8497 1.48438 17.0312V5.45312C1.48438 4.63464 2.15027 3.96875 2.96875 3.96875H3.89648V4.71094C3.89648 5.12085 4.22876 5.45312 4.63867 5.45312C5.04858 5.45312 5.38086 5.12085 5.38086 4.71094V3.96875H8.7207V4.71094C8.7207 5.12085 9.05298 5.45312 9.46289 5.45312C9.8728 5.45312 10.2051 5.12085 10.2051 4.71094V3.96875H13.582V4.71094C13.582 5.12085 13.9143 5.45312 14.3242 5.45312C14.7341 5.45312 15.0664 5.12085 15.0664 4.71094V3.96875H16.0312C16.8497 3.96875 17.5156 4.63464 17.5156 5.45312V13.3203C17.5156 13.7302 17.8479 14.0625 18.2578 14.0625Z" fill="#0047CC"/>
<path d="M4.63867 9.53516C5.04857 9.53516 5.38086 9.20287 5.38086 8.79297C5.38086 8.38307 5.04857 8.05078 4.63867 8.05078C4.22877 8.05078 3.89648 8.38307 3.89648 8.79297C3.89648 9.20287 4.22877 9.53516 4.63867 9.53516Z" fill="#0047CC"/>
<path d="M11.0957 9.53516C11.5056 9.53516 11.8379 9.20287 11.8379 8.79297C11.8379 8.38307 11.5056 8.05078 11.0957 8.05078C10.6858 8.05078 10.3535 8.38307 10.3535 8.79297C10.3535 9.20287 10.6858 9.53516 11.0957 9.53516Z" fill="#0047CC"/>
<path d="M14.3242 9.53516C14.7341 9.53516 15.0664 9.20287 15.0664 8.79297C15.0664 8.38307 14.7341 8.05078 14.3242 8.05078C13.9143 8.05078 13.582 8.38307 13.582 8.79297C13.582 9.20287 13.9143 9.53516 14.3242 9.53516Z" fill="#0047CC"/>
<path d="M4.63867 12.7637C5.04857 12.7637 5.38086 12.4314 5.38086 12.0215C5.38086 11.6116 5.04857 11.2793 4.63867 11.2793C4.22877 11.2793 3.89648 11.6116 3.89648 12.0215C3.89648 12.4314 4.22877 12.7637 4.63867 12.7637Z" fill="#0047CC"/>
<path d="M4.63867 15.9922C5.04857 15.9922 5.38086 15.6599 5.38086 15.25C5.38086 14.8401 5.04857 14.5078 4.63867 14.5078C4.22877 14.5078 3.89648 14.8401 3.89648 15.25C3.89648 15.6599 4.22877 15.9922 4.63867 15.9922Z" fill="#0047CC"/>
<path d="M7.86719 9.53516C8.27709 9.53516 8.60938 9.20287 8.60938 8.79297C8.60938 8.38307 8.27709 8.05078 7.86719 8.05078C7.45729 8.05078 7.125 8.38307 7.125 8.79297C7.125 9.20287 7.45729 9.53516 7.86719 9.53516Z" fill="#0047CC"/>
<path d="M7.86719 12.7637C8.27709 12.7637 8.60938 12.4314 8.60938 12.0215C8.60938 11.6116 8.27709 11.2793 7.86719 11.2793C7.45729 11.2793 7.125 11.6116 7.125 12.0215C7.125 12.4314 7.45729 12.7637 7.86719 12.7637Z" fill="#0047CC"/>
<path d="M7.86719 15.9922C8.27709 15.9922 8.60938 15.6599 8.60938 15.25C8.60938 14.8401 8.27709 14.5078 7.86719 14.5078C7.45729 14.5078 7.125 14.8401 7.125 15.25C7.125 15.6599 7.45729 15.9922 7.86719 15.9922Z" fill="#0047CC"/>
<path d="M11.0957 12.7637C11.5056 12.7637 11.8379 12.4314 11.8379 12.0215C11.8379 11.6116 11.5056 11.2793 11.0957 11.2793C10.6858 11.2793 10.3535 11.6116 10.3535 12.0215C10.3535 12.4314 10.6858 12.7637 11.0957 12.7637Z" fill="#0047CC"/>
<path d="M14.3242 12.7637C14.7341 12.7637 15.0664 12.4314 15.0664 12.0215C15.0664 11.6116 14.7341 11.2793 14.3242 11.2793C13.9143 11.2793 13.582 11.6116 13.582 12.0215C13.582 12.4314 13.9143 12.7637 14.3242 12.7637Z" fill="#0047CC"/>
<path d="M11.0957 15.9922C11.5056 15.9922 11.8379 15.6599 11.8379 15.25C11.8379 14.8401 11.5056 14.5078 11.0957 14.5078C10.6858 14.5078 10.3535 14.8401 10.3535 15.25C10.3535 15.6599 10.6858 15.9922 11.0957 15.9922Z" fill="#0047CC"/>
<path d="M28.02 6.132H31.224C32.232 6.132 32.996 6.416 33.516 6.984C34.028 7.544 34.284 8.224 34.284 9.024C34.284 9.84 34.016 10.516 33.48 11.052C32.952 11.596 32.156 11.868 31.092 11.868H29.652V15H28.02V6.132ZM29.652 10.368H31.14C31.604 10.368 31.964 10.24 32.22 9.984C32.484 9.72 32.616 9.392 32.616 9C32.616 8.608 32.492 8.288 32.244 8.04C32.004 7.784 31.676 7.656 31.26 7.656H29.652V10.368ZM40.2608 9.312V8.484H41.7488V15H40.2608V14.196C39.6928 14.836 38.9848 15.156 38.1368 15.156C37.2008 15.156 36.4288 14.828 35.8208 14.172C35.2128 13.516 34.9088 12.696 34.9088 11.712C34.9088 10.728 35.2128 9.92 35.8208 9.288C36.4368 8.648 37.2088 8.328 38.1368 8.328C38.9688 8.328 39.6768 8.656 40.2608 9.312ZM40.2968 11.736C40.2968 11.184 40.1168 10.716 39.7568 10.332C39.3968 9.948 38.9368 9.756 38.3768 9.756C37.8168 9.756 37.3568 9.948 36.9968 10.332C36.6448 10.724 36.4688 11.192 36.4688 11.736C36.4688 12.288 36.6448 12.76 36.9968 13.152C37.3568 13.536 37.8168 13.728 38.3768 13.728C38.9368 13.728 39.3968 13.536 39.7568 13.152C40.1168 12.768 40.2968 12.296 40.2968 11.736ZM45.4428 15.168C44.3148 15.168 43.4388 14.736 42.8148 13.872L43.7028 12.912C43.9188 13.2 44.1828 13.428 44.4948 13.596C44.8148 13.756 45.1348 13.836 45.4548 13.836C45.7348 13.836 45.9628 13.772 46.1388 13.644C46.3228 13.508 46.4148 13.344 46.4148 13.152C46.4148 12.896 46.2508 12.688 45.9228 12.528C45.8188 12.464 45.5548 12.356 45.1308 12.204C44.7548 12.06 44.4788 11.944 44.3028 11.856C43.5748 11.496 43.2108 10.944 43.2108 10.2C43.2108 9.632 43.4268 9.168 43.8588 8.808C44.2908 8.448 44.8628 8.268 45.5748 8.268C46.4948 8.268 47.2388 8.588 47.8068 9.228L46.9908 10.224C46.5668 9.776 46.0788 9.552 45.5268 9.552C45.2868 9.552 45.0948 9.612 44.9508 9.732C44.8068 9.844 44.7348 9.988 44.7348 10.164C44.7348 10.452 44.9228 10.664 45.2988 10.8C46.2508 11.176 46.7748 11.392 46.8708 11.448C47.6068 11.848 47.9748 12.4 47.9748 13.104C47.9748 13.696 47.7428 14.188 47.2788 14.58C46.8148 14.972 46.2028 15.168 45.4428 15.168ZM53.201 13.392L53.693 14.616C53.181 14.976 52.553 15.156 51.809 15.156C50.321 15.156 49.577 14.308 49.577 12.612V9.804H48.497V8.484H49.601V6.18H51.149V8.484H53.333V9.804H51.149V12.552C51.149 13.336 51.465 13.728 52.097 13.728C52.465 13.728 52.833 13.616 53.201 13.392ZM59.7193 15.144C58.7273 15.144 57.7793 14.852 56.8753 14.268L57.5713 12.948C58.2993 13.404 58.9913 13.632 59.6473 13.632C60.1193 13.632 60.4913 13.524 60.7633 13.308C61.0433 13.084 61.1833 12.792 61.1833 12.432C61.1833 12.072 61.0473 11.78 60.7753 11.556C60.5033 11.332 60.1473 11.22 59.7073 11.22H58.5793V9.756H59.5753C60.0073 9.756 60.3513 9.652 60.6073 9.444C60.8633 9.228 60.9913 8.952 60.9913 8.616C60.9913 8.28 60.8673 8.012 60.6193 7.812C60.3793 7.612 60.0673 7.512 59.6833 7.512C59.1393 7.512 58.5353 7.748 57.8713 8.22L57.0793 7.044C57.4233 6.716 57.8393 6.456 58.3273 6.264C58.8233 6.072 59.3353 5.976 59.8633 5.976C60.6553 5.976 61.3193 6.2 61.8553 6.648C62.3913 7.088 62.6593 7.636 62.6593 8.292C62.6593 8.756 62.5193 9.168 62.2393 9.528C61.9593 9.888 61.5953 10.144 61.1473 10.296V10.344C61.6833 10.464 62.1073 10.724 62.4193 11.124C62.7313 11.516 62.8873 11.984 62.8873 12.528C62.8873 13.288 62.5913 13.916 61.9993 14.412C61.4153 14.9 60.6553 15.144 59.7193 15.144ZM67.5496 15.144C66.7576 15.144 66.0856 14.924 65.5336 14.484C64.9816 14.036 64.5856 13.476 64.3456 12.804C64.1056 12.132 63.9856 11.384 63.9856 10.56C63.9856 9.736 64.1056 8.988 64.3456 8.316C64.5856 7.644 64.9816 7.088 65.5336 6.648C66.0856 6.2 66.7576 5.976 67.5496 5.976C68.0296 5.976 68.4696 6.06 68.8696 6.228C69.2696 6.396 69.6056 6.624 69.8776 6.912C70.1496 7.192 70.3776 7.528 70.5616 7.92C70.7536 8.312 70.8936 8.728 70.9816 9.168C71.0696 9.608 71.1136 10.072 71.1136 10.56C71.1136 11.048 71.0696 11.512 70.9816 11.952C70.8936 12.392 70.7536 12.808 70.5616 13.2C70.3776 13.592 70.1496 13.932 69.8776 14.22C69.6056 14.5 69.2696 14.724 68.8696 14.892C68.4696 15.06 68.0296 15.144 67.5496 15.144ZM67.5496 13.608C68.1976 13.608 68.6776 13.328 68.9896 12.768C69.3096 12.208 69.4696 11.472 69.4696 10.56C69.4696 9.656 69.3096 8.924 68.9896 8.364C68.6616 7.796 68.1816 7.512 67.5496 7.512C66.9176 7.512 66.4376 7.796 66.1096 8.364C65.7896 8.924 65.6296 9.656 65.6296 10.56C65.6296 11.472 65.7896 12.208 66.1096 12.768C66.4296 13.328 66.9096 13.608 67.5496 13.608ZM78.993 15H75.645V6.132H79.065C80.377 6.132 81.409 6.532 82.161 7.332C82.913 8.116 83.289 9.2 83.289 10.584C83.289 11.944 82.905 13.02 82.137 13.812C81.385 14.604 80.337 15 78.993 15ZM77.277 7.704V13.428H79.053C79.845 13.428 80.465 13.156 80.913 12.612C81.361 12.068 81.585 11.38 81.585 10.548C81.585 9.732 81.365 9.056 80.925 8.52C80.477 7.976 79.857 7.704 79.065 7.704H77.277ZM89.6202 9.312V8.484H91.1082V15H89.6202V14.196C89.0522 14.836 88.3442 15.156 87.4962 15.156C86.5602 15.156 85.7882 14.828 85.1802 14.172C84.5722 13.516 84.2682 12.696 84.2682 11.712C84.2682 10.728 84.5722 9.92 85.1802 9.288C85.7962 8.648 86.5682 8.328 87.4962 8.328C88.3282 8.328 89.0362 8.656 89.6202 9.312ZM89.6562 11.736C89.6562 11.184 89.4762 10.716 89.1162 10.332C88.7562 9.948 88.2962 9.756 87.7362 9.756C87.1762 9.756 86.7162 9.948 86.3562 10.332C86.0042 10.724 85.8282 11.192 85.8282 11.736C85.8282 12.288 86.0042 12.76 86.3562 13.152C86.7162 13.536 87.1762 13.728 87.7362 13.728C88.2962 13.728 88.7562 13.536 89.1162 13.152C89.4762 12.768 89.6562 12.296 89.6562 11.736ZM95.5942 12.888L97.1422 8.484H98.8462L96.2062 15.42C95.8862 16.228 95.5142 16.82 95.0902 17.196C94.6742 17.58 94.1622 17.772 93.5542 17.772C93.0582 17.772 92.6582 17.668 92.3542 17.46L92.6062 16.14C92.9102 16.284 93.1862 16.356 93.4342 16.356C93.9622 16.356 94.3862 16.004 94.7062 15.3L94.8622 14.94L92.0182 8.484H93.8302L95.5942 12.888ZM101.587 15.168C100.459 15.168 99.5833 14.736 98.9593 13.872L99.8473 12.912C100.063 13.2 100.327 13.428 100.639 13.596C100.959 13.756 101.279 13.836 101.599 13.836C101.879 13.836 102.107 13.772 102.283 13.644C102.467 13.508 102.559 13.344 102.559 13.152C102.559 12.896 102.395 12.688 102.067 12.528C101.963 12.464 101.699 12.356 101.275 12.204C100.899 12.06 100.623 11.944 100.447 11.856C99.7193 11.496 99.3553 10.944 99.3553 10.2C99.3553 9.632 99.5713 9.168 100.003 8.808C100.435 8.448 101.007 8.268 101.719 8.268C102.639 8.268 103.383 8.588 103.951 9.228L103.135 10.224C102.711 9.776 102.223 9.552 101.671 9.552C101.431 9.552 101.239 9.612 101.095 9.732C100.951 9.844 100.879 9.988 100.879 10.164C100.879 10.452 101.067 10.664 101.443 10.8C102.395 11.176 102.919 11.392 103.015 11.448C103.751 11.848 104.119 12.4 104.119 13.104C104.119 13.696 103.887 14.188 103.423 14.58C102.959 14.972 102.347 15.168 101.587 15.168Z" fill="#0047CC"/>
<path d="M111 10L115 14L119 10" stroke="#0047CC" stroke-width="1.5" stroke-linecap="round"/>
</svg>
